<svg version="1.1" id="Layer_1" xmlns="http://www.w3.org/2000/svg" xmlns:xlink="http://www.w3.org/1999/xlink" x="0px" y="0px"
	 width="100%" viewBox="0 0 496 496" enable-background="new 0 0 496 496" xml:space="preserve">
<path fill="#000000" opacity="1.000000" stroke="none" 
	d="
M262.786133,147.703979 
	C266.995972,147.288437 270.742249,146.878952 275.725220,146.334290 
	C266.928833,142.010681 258.806671,142.810760 250.825607,143.480453 
	C245.382965,143.937164 240.038208,145.463684 234.604568,146.159348 
	C231.142151,146.602615 230.302170,148.354462 230.306900,151.525696 
	C230.370789,194.339569 230.319611,237.153610 230.380798,279.967499 
	C230.392868,288.409576 235.206909,293.721100 243.410599,294.926208 
	C244.963593,295.154358 246.854218,294.781769 247.522812,296.903198 
	C243.987488,298.938080 201.778214,299.047150 197.728134,297.021515 
	C198.174637,294.680450 200.159180,295.194794 201.660126,294.983490 
	C209.868561,293.827881 214.616791,288.540497 214.648697,280.066589 
	C214.722061,260.575684 214.678711,241.084335 214.680893,221.593155 
	C214.683182,201.269012 214.447311,180.940918 214.788040,160.622467 
	C214.948608,151.047318 209.693634,145.523590 201.156494,146.297119 
	C199.940277,146.407303 198.407913,146.712357 197.733047,144.954407 
	C198.006531,142.908264 199.742798,143.008789 201.121933,142.872620 
	C218.673050,141.139526 235.906754,137.257233 253.389191,135.132568 
	C263.501221,133.903656 273.696289,134.018936 283.541992,137.283035 
	C301.088043,143.099930 311.694366,154.843246 314.454437,173.425156 
	C317.166260,191.682083 314.195465,208.352188 300.831146,221.926453 
	C288.659088,234.289734 266.128357,236.908356 251.186020,228.175751 
	C245.038315,224.582870 241.573685,219.134125 240.035812,212.323746 
	C239.735367,210.993286 239.786118,210.981827 241.172302,208.443573 
	C243.264252,208.432419 243.258911,210.302094 243.830750,211.547852 
	C245.867706,215.985443 249.088776,219.184036 253.517212,221.200058 
	C258.040680,223.259354 261.416321,221.431503 261.759216,216.342194 
	C262.072052,211.698868 261.852997,207.019196 261.855225,202.355545 
	C261.862244,187.528961 261.730804,172.700455 261.948608,157.877014 
	C262.012207,153.550552 260.774567,151.706360 256.276489,152.208923 
	C253.150635,152.558151 249.996078,152.356903 246.876755,153.190521 
	C243.463638,154.102707 241.010620,155.872055 240.704681,159.472214 
	C240.419052,162.833389 242.214874,165.130905 245.432007,166.284958 
	C245.992645,166.486069 246.463242,166.938278 247.175659,167.405960 
	C242.227692,168.793488 238.931870,167.296707 236.952744,163.021347 
	C235.012909,158.830826 236.669434,153.974945 240.872253,151.401840 
	C245.792221,148.389648 251.443405,148.743362 256.832947,147.928879 
	C258.632721,147.656906 260.490997,147.771927 262.786133,147.703979 
M270.244293,187.499985 
	C270.234863,196.644043 270.123962,205.789520 270.249908,214.931702 
	C270.341614,221.592163 274.294159,223.804092 280.155884,220.658371 
	C286.769867,217.108932 291.053619,211.523865 293.737061,204.658890 
	C297.716949,194.477188 298.025665,183.915604 296.368011,173.284332 
	C294.999359,164.506332 291.494598,156.706345 284.309814,151.033691 
	C281.797089,149.049774 279.581696,146.348343 275.549622,148.345398 
	C271.534058,150.334229 270.162292,153.344360 270.206207,157.571777 
	C270.306458,167.213608 270.242432,176.857117 270.244293,187.499985 
z"/>
<path fill="#000000" opacity="1.000000" stroke="none" 
	d="
M221.245392,390.349426 
	C218.236740,390.336090 215.764221,390.983521 214.759506,387.112396 
	C214.003265,384.198700 209.002533,384.682495 207.187607,387.604370 
	C205.622452,390.124146 205.622467,390.124146 202.041336,389.830841 
	C205.332504,382.946411 208.572235,376.169586 212.244644,368.487701 
	C215.899216,373.514130 217.274246,378.683319 219.884491,383.157379 
	C221.062439,385.176453 221.325027,388.932648 224.360168,388.276062 
	C227.245239,387.651947 226.358795,384.098358 226.482620,381.767487 
	C226.690826,377.848297 227.029587,373.872711 225.453262,369.715118 
	C229.607056,369.715118 233.421051,369.443390 237.179108,369.785614 
	C241.628586,370.190796 243.657120,374.025482 242.022614,378.223999 
	C240.153534,383.025085 241.214859,385.484375 247.194931,388.792450 
	C248.721115,382.425049 247.819962,376.273712 247.671097,370.003143 
	C249.743744,369.117554 251.821869,369.803894 254.311783,369.891083 
	C254.311783,376.693176 254.311783,383.252533 254.311783,390.249969 
	C250.179855,390.249969 245.857407,390.614929 241.622879,390.160583 
	C235.915131,389.548126 232.831131,382.639587 235.704422,377.799652 
	C237.324203,375.071198 236.818161,373.166016 232.853317,372.419220 
	C231.679932,378.358917 232.665756,384.092987 232.536331,389.922394 
	C228.978607,390.991486 225.300247,389.925476 221.245392,390.349426 
z"/>
<path fill="#000000" opacity="1.000000" stroke="none" 
	d="
M249.330383,99.969902 
	C256.456787,98.346237 260.775787,99.581314 263.411102,103.761009 
	C267.707886,110.575813 268.014862,114.832878 264.532318,119.309410 
	C261.093048,123.730309 256.075989,125.600754 250.822159,123.976547 
	C245.773651,122.415817 242.875443,118.609993 241.957626,113.541702 
	C240.865433,107.510506 243.086090,103.558533 249.330383,99.969902 
z"/>
<path fill="#000000" opacity="1.000000" stroke="none" 
	d="
M145.558502,379.436829 
	C146.782211,373.425812 150.501007,370.159515 155.789627,370.096222 
	C160.833145,370.035889 165.365662,373.559784 166.305984,378.272400 
	C167.383453,383.672363 164.995590,388.639221 160.333435,390.695648 
	C155.668396,392.753326 149.949066,391.082703 147.035034,386.959869 
	C145.473755,384.750946 145.462967,382.319733 145.558502,379.436829 
z"/>
<path fill="#000000" opacity="1.000000" stroke="none" 
	d="
M276.849609,379.071838 
	C276.851501,375.820496 276.851501,373.033691 276.851501,370.297699 
	C279.021240,369.342987 280.935120,369.499542 282.906006,370.079468 
	C284.592255,372.961121 280.342285,379.987518 288.048401,378.448181 
	C293.119354,377.435211 289.974121,373.188324 289.861328,369.933838 
	C292.195435,369.068390 294.521820,369.805084 297.005371,369.805908 
	C296.129883,376.780914 295.964264,383.296082 297.110046,389.832550 
	C294.896545,390.723389 292.783386,390.398956 290.671783,390.081543 
	C288.988586,387.283112 294.058716,381.007324 286.582825,381.459869 
	C280.324310,381.838684 284.552185,386.751587 283.126465,390.004486 
	C281.602173,390.862762 279.374756,390.418365 276.847717,389.875885 
	C276.847717,386.412872 276.847717,382.974640 276.849609,379.071838 
z"/>
<path fill="#000000" opacity="1.000000" stroke="none" 
	d="
M194.275146,366.121460 
	C200.064453,368.080750 202.163330,371.092468 200.957474,375.204224 
	C199.736267,379.368347 196.141632,380.917664 191.055786,379.466736 
	C190.567245,377.813446 192.123444,377.614624 192.930008,376.962494 
	C194.938309,375.338806 195.014923,373.221771 194.399246,371.066193 
	C193.951675,369.499207 192.624695,368.578400 190.954575,368.799194 
	C189.479080,368.994263 189.340912,370.348694 189.373047,371.524994 
	C189.535965,377.487793 188.731613,383.487976 190.051102,389.686249 
	C187.779144,390.791016 185.446350,390.489807 182.954285,389.895111 
	C182.752274,381.980560 184.039871,374.244202 182.744675,366.364807 
	C186.630203,365.372803 190.250687,365.853210 194.275146,366.121460 
z"/>
<path fill="#000000" opacity="1.000000" stroke="none" 
	d="
M189.453766,240.078384 
	C197.070267,240.133865 200.444931,243.461517 199.814484,249.807571 
	C199.301758,254.968597 195.350723,258.016388 190.032318,257.203125 
	C185.971542,256.582214 183.383591,254.147751 182.804001,250.090881 
	C182.098312,245.151489 184.258087,241.766586 189.453766,240.078384 
z"/>
<path fill="#000000" opacity="1.000000" stroke="none" 
	d="
M325.543884,368.425110 
	C323.998260,368.988403 322.810425,369.522491 321.388123,370.161987 
	C320.356873,367.410095 320.802429,365.823975 323.892914,365.812012 
	C329.386383,365.790710 334.880676,365.760345 340.373322,365.831512 
	C343.224487,365.868439 343.673096,367.451630 342.676025,369.822998 
	C335.507904,367.278381 335.184387,367.475922 335.249664,375.230133 
	C335.290039,380.024872 334.787109,384.843140 335.821686,389.717468 
	C333.353271,390.719116 330.947632,390.415070 328.765076,390.009674 
	C328.765076,384.079956 328.783936,378.322052 328.754791,372.564423 
	C328.744720,370.570343 328.987793,368.321136 325.543884,368.425110 
z"/>
<path fill="#000000" opacity="1.000000" stroke="none" 
	d="
M264.884705,371.840576 
	C263.151337,373.116150 263.404633,374.266632 264.709839,375.233978 
	C266.041595,376.221100 267.498322,377.037872 268.880188,377.959381 
	C273.398499,380.972595 274.499268,384.530518 271.962555,387.865417 
	C269.359131,391.287994 262.309509,392.125275 259.251923,389.394684 
	C257.510834,387.839752 257.840363,386.228607 259.166443,384.318420 
	C260.601074,385.576996 261.899384,386.963623 263.436096,387.994995 
	C264.994720,389.041046 266.713135,388.805420 267.853790,387.218750 
	C269.138794,385.431183 267.534332,384.450775 266.412689,383.586090 
	C264.706085,382.270416 262.712433,381.311401 261.077271,379.922333 
	C258.075043,377.371918 257.761627,374.225311 260.028320,371.069122 
	C261.744751,368.679169 268.692200,367.904205 270.679504,369.682251 
	C271.746948,370.637299 271.238281,371.806458 271.104218,373.243042 
	C268.885742,373.351227 267.425415,370.626740 264.884705,371.840576 
z"/>
<path fill="#000000" opacity="1.000000" stroke="none" 
	d="
M317.677368,387.694336 
	C316.522186,392.499847 313.383057,389.405426 311.003235,390.168182 
	C312.015442,382.032562 311.930450,374.348755 311.116486,366.544220 
	C313.246277,365.303314 315.481232,365.752411 318.006317,366.197845 
	C316.916931,373.275330 317.265717,380.301178 317.677368,387.694336 
z"/>
</svg>